<?xml version="1.0" encoding="UTF-8"?><svg id="Layer_2" xmlns="http://www.w3.org/2000/svg" viewBox="0 0 1371.18 900"><path d="M1371.14,582.51c-1.55,71.83-63.12,134.21-124.45,164.12-39.92,13.34-85.39,9.4-126.66,6.5-2.92-17.46,9.76-44.24-19.99-44.6-18.53,.13-63.52-11.9-53.27,20.57,1.63,7.94-5.29,13.92-12.2,9.09-87.62-41.93-130.6-146.4-109.65-239.37,22.62,51.64,66.31,97.59,115.51,124.94,23.96,6.56,52.31,3.69,77.03,2.31,104.14-3.19,90.77-36.91,88.64,35.65,12.07,7.2,35.16,1.26,49.84,3.17,26.61,.72,15.32-36.2,19.5-52.71,3.71-9.86,16.76-10.96,27.01-13.38,32.03-7.79,50.12-38.89,64.32-66.27,2.78,16.44,4.72,33.32,4.37,49.98Z" fill="#ffce00"/><path d="M1205.55,533.05c-21.19-1.35-50.19-2.39-70.96,2.94,0,0-30.88,8.97-30.88,8.97l-14.06,9.04c-6.01-.64-7.1,2.47-6.65-4.67,9.26-11.91,32.07-41.69,41.11-53.14,30.9-51.89,14.13-69.21,42.83-14.92,8.49,11.82,29.94,40.62,38.61,51.78Z" fill="#ffce00"/><path d="M1067.45,417.22c-8.52,6.86-22.74-4.06-41.57-6.73-18.46-5.74-44.19-2.54-60.71,3.98-11.85,5.45-14.69,8.15-19.56,5.84-1.65-8.47,24.04-34.53,25.94-36.57,27.9-30.17,30.44-26.78,39.69-55.53,4.08-15.11,5.29,5.09,8.23,11.62,9.1,21.89,34.06,56.08,44.91,69.85,1.32,1.58,4.29,5.12,3.07,7.54Z" fill="#ffce00"/><path d="M1336.4,423.29c-3.42,1.93-14.71-3.98-18.91-3.6-16.44-2.03-36.77-11.14-53.4-8.2-12.98,2.96-14.62,4.08-24.84,9.95-6.92,3.65-4.44,2.85-8.27,3.24-18.95-3.09-.19-19.64,6.57-36.91,7.37-15.18,17.61-36.66,18.95-46.84,.97-30.76,10.11,10.5,26.87,22.73,15.6,17.3,26.66,18.66,38.89,37.72,.52,2.52,15.57,18.21,14.14,21.91Z" fill="#ffce00"/></svg>